<svg xmlns="http://www.w3.org/2000/svg" viewBox="0 0 900 420" font-family="system-ui, -apple-system, sans-serif">
  <defs>
    <radialGradient id="bg" cx="50%" cy="40%" r="60%">
      <stop offset="0%" stop-color="#0f1628"/>
      <stop offset="100%" stop-color="#080810"/>
    </radialGradient>
    <radialGradient id="sphere" cx="45%" cy="35%" r="50%">
      <stop offset="0%" stop-color="#1a2a4a"/>
      <stop offset="100%" stop-color="#0a0e18"/>
    </radialGradient>
    <filter id="glow"><feGaussianBlur stdDeviation="2.5" result="b"/><feMerge><feMergeNode in="b"/><feMergeNode in="SourceGraphic"/></feMerge></filter>
    <filter id="glow2"><feGaussianBlur stdDeviation="4" result="b"/><feMerge><feMergeNode in="b"/><feMergeNode in="SourceGraphic"/></feMerge></filter>
  </defs>

  <!-- Background -->
  <rect width="900" height="420" fill="url(#bg)" rx="12"/>

  <!-- Title area -->
  <text x="530" y="55" fill="#e0e0f0" font-size="26" font-weight="700">hü>q</text>
  <text x="530" y="80" fill="#6a6a88" font-size="13">Representation Contrast Imaging</text>
  <text x="530" y="115" fill="#8a8aa8" font-size="12.5" font-weight="300">
    <tspan x="530">( RepEng ¦6ŽZ" qB"</tspan>
    <tspan x="530" dy="20">k·!ŗh:z¶╠ä¤čīs¤</tspan>
  </text>

  <!-- Sphere -->
  <circle cx="240" cy="210" r="170" fill="url(#sphere)" stroke="#1e2e4e" stroke-width="1"/>

  <!-- Contour lines -->
  <ellipse cx="240" cy="210" rx="170" ry="38" fill="none" stroke="#152035" stroke-width="0.7" transform="rotate(-12 240 210)"/>
  <ellipse cx="240" cy="210" rx="150" ry="32" fill="none" stroke="#152035" stroke-width="0.7" transform="rotate(8 240 210)"/>
  <ellipse cx="240" cy="210" rx="130" ry="26" fill="none" stroke="#152035" stroke-width="0.7" transform="rotate(-5 240 210)"/>
  <ellipse cx="240" cy="210" rx="110" ry="20" fill="none" stroke="#152035" stroke-width="0.7" transform="rotate(15 240 210)"/>

  <!-- Sulcus 1: Emotion cliff (red gash) -->
  <path d="M 310 100 Q 340 145, 355 185 Q 368 218, 365 255 Q 360 290, 338 325"
        fill="none" stroke="#ef5350" stroke-width="4" stroke-linecap="round" opacity="0.85" filter="url(#glow)"/>
  <text x="385" y="215" fill="#ef5350" font-size="11" font-weight="600">emotion Ł</text>
  <text x="385" y="232" fill="#ef5350" font-size="9" opacity="0.7">▒ = +1.8 Æ +2.0</text>

  <!-- Sulcus 2: Empathy (amber) -->
  <path d="M 120 285 Q 165 305, 210 312 Q 250 316, 285 308"
        fill="none" stroke="#ffa726" stroke-width="3" stroke-linecap="round" opacity="0.75" filter="url(#glow)"/>
  <text x="120" y="340" fill="#ffa726" font-size="10">empathy ¤ (▒=-1.4)</text>

  <!-- Smooth path: formality (green dashed) -->
  <path d="M 108 155 Q 180 128, 240 135 Q 300 142, 355 170"
        fill="none" stroke="#66bb6a" stroke-width="2.5" stroke-dasharray="8 4" opacity="0.85"/>
  <circle cx="108" cy="155" r="4" fill="#66bb6a"/>
  <circle cx="355" cy="170" r="4" fill="#66bb6a"/>
  <text x="185" y="115" fill="#66bb6a" font-size="10">formality  sčŪ </text>

  <!-- Cliff path: emotion (green then crash) -->
  <path d="M 160 175 Q 220 165, 270 170 Q 310 178, 335 192"
        fill="none" stroke="#66bb6a" stroke-width="2.5" stroke-linecap="round"/>
  <path d="M 335 192 L 348 205" fill="none" stroke="#ffa726" stroke-width="2.5"/>
  <circle cx="160" cy="175" r="4" fill="#66bb6a"/>
  <!-- crash X -->
  <g transform="translate(352,210)">
    <line x1="-6" y1="-6" x2="6" y2="6" stroke="#ef5350" stroke-width="3" stroke-linecap="round"/>
    <line x1="6" y1="-6" x2="-6" y2="6" stroke="#ef5350" stroke-width="3" stroke-linecap="round"/>
  </g>
  <text x="365" y="260" fill="#ef5350" font-size="9.5" font-weight="600">×!</text>

  <!-- Right side: key metrics -->
  <g transform="translate(530, 165)">
    <text fill="#8a8aa8" font-size="11" font-weight="600" letter-spacing="2">kŽė£</text>

    <!-- emotion row -->
    <rect x="0" y="20" width="330" height="32" rx="6" fill="#1a0e0e" stroke="#3a1a1a" stroke-width="1"/>
    <circle cx="18" cy="36" r="5" fill="#ef5350"/>
    <text x="32" y="40" fill="#ccc" font-size="11">emotion_valence</text>
    <rect x="170" y="26" width="100" height="20" rx="3" fill="#0a1a0a"/>
    <rect x="170" y="26" width="60" height="20" rx="3" fill="#1a3a1a"/>
    <rect x="230" y="26" width="3" height="20" fill="#ef5350"/>
    <text x="280" y="40" fill="#ef5350" font-size="10" font-weight="600">CLIFF</text>

    <!-- empathy row -->
    <rect x="0" y="60" width="330" height="32" rx="6" fill="#1a120e" stroke="#3a2a1a" stroke-width="1"/>
    <circle cx="18" cy="76" r="5" fill="#ffa726"/>
    <text x="32" y="80" fill="#ccc" font-size="11">empathy</text>
    <rect x="170" y="66" width="100" height="20" rx="3" fill="#0a1a0a"/>
    <rect x="195" y="66" width="3" height="20" fill="#ffa726"/>
    <rect x="198" y="66" width="72" height="20" rx="3" fill="#1a3a1a"/>
    <text x="280" y="80" fill="#ffa726" font-size="10" font-weight="600">ROUGH</text>

    <!-- formality row -->
    <rect x="0" y="100" width="330" height="32" rx="6" fill="#0e1a0e" stroke="#1a3a1a" stroke-width="1"/>
    <circle cx="18" cy="116" r="5" fill="#42a5f5"/>
    <text x="32" y="120" fill="#ccc" font-size="11">formality</text>
    <rect x="170" y="106" width="100" height="20" rx="3" fill="#1a3a1a"/>
    <text x="280" y="120" fill="#66bb6a" font-size="10" font-weight="600">SMOOTH</text>

    <!-- creativity row -->
    <rect x="0" y="140" width="330" height="32" rx="6" fill="#0e1a0e" stroke="#1a3a1a" stroke-width="1"/>
    <circle cx="18" cy="156" r="5" fill="#ffa726"/>
    <text x="32" y="160" fill="#ccc" font-size="11">creativity</text>
    <rect x="170" y="146" width="100" height="20" rx="3" fill="#1a3a1a"/>
    <text x="280" y="160" fill="#66bb6a" font-size="10" font-weight="600">SMOOTH</text>

    <!-- confidence row -->
    <rect x="0" y="180" width="330" height="32" rx="6" fill="#0e1a0e" stroke="#1a3a1a" stroke-width="1"/>
    <circle cx="18" cy="196" r="5" fill="#66bb6a"/>
    <text x="32" y="200" fill="#ccc" font-size="11">confidence</text>
    <rect x="170" y="186" width="100" height="20" rx="3" fill="#1a3a1a"/>
    <text x="280" y="200" fill="#66bb6a" font-size="10" font-weight="600">SMOOTH</text>
  </g>

  <!-- Legend -->
  <g transform="translate(530, 395)">
    <rect x="0" y="0" width="8" height="8" rx="2" fill="#1a3a1a"/>
    <text x="14" y="8" fill="#666" font-size="9">ēh:</text>
    <rect x="70" y="0" width="3" height="8" fill="#ef5350"/>
    <text x="80" y="8" fill="#666" font-size="9">ŁMn</text>
    <line x1="145" y1="4" x2="165" y2="4" stroke="#66bb6a" stroke-width="2" stroke-dasharray="5 3"/>
    <text x="172" y="8" fill="#666" font-size="9">sč’ä</text>
  </g>
</svg>
